<?xml version="1.0" standalone="no"?>
<!DOCTYPE svg PUBLIC "-//W3C//DTD SVG 20010904//EN"
 "http://www.w3.org/TR/2001/REC-SVG-20010904/DTD/svg10.dtd">
<svg version="1.0" xmlns="http://www.w3.org/2000/svg"
 width="281.000000pt" height="48.000000pt" viewBox="0 0 281.000000 48.000000"
 preserveAspectRatio="xMidYMid meet">

<g transform="translate(0.000000,48.000000) scale(0.100000,-0.100000)"
fill="#000000" stroke="none">
<path d="M1188 437 c-114 -23 -210 -46 -215 -51 -5 -5 2 -6 17 -3 14 4 113 21
220 39 l196 32 200 -33 c109 -18 210 -35 224 -38 17 -4 22 -2 15 4 -8 8 -430
95 -446 92 -2 0 -97 -19 -211 -42z"/>
<path d="M611 330 c15 -9 14 -21 -12 -131 -16 -67 -27 -124 -25 -126 11 -12
24 10 35 62 14 61 39 95 71 95 25 0 26 -29 5 -90 -16 -44 -8 -70 20 -70 16 0
45 33 45 51 0 8 -6 3 -13 -10 -14 -28 -37 -40 -37 -19 0 7 7 35 15 61 22 74
-7 108 -66 77 -10 -6 -19 -9 -19 -8 0 2 7 28 15 58 8 30 15 56 15 58 0 1 -15
2 -32 2 -26 -1 -29 -3 -17 -10z"/>
<path d="M1242 330 c-101 -23 -132 -166 -51 -234 43 -36 111 -38 167 -4 49 30
38 41 -14 13 -58 -31 -66 -31 -99 -2 -50 43 -42 185 11 209 21 10 32 8 59 -7
19 -10 37 -26 40 -36 11 -32 25 -21 25 20 0 35 -2 38 -27 37 -16 0 -39 2 -53
5 -14 4 -40 3 -58 -1z m-31 -48 c-16 -29 -13 -132 3 -164 20 -37 4 -35 -28 3
-37 43 -37 115 0 159 29 33 42 34 25 2z"/>
<path d="M4 313 c23 -71 93 -245 100 -246 6 -2 78 172 102 246 12 37 -13 14
-27 -25 l-16 -43 -58 0 -58 0 -16 43 c-14 39 -39 62 -27 25z m140 -115 c-4
-13 -15 -41 -24 -63 l-17 -40 -21 58 c-12 32 -22 60 -22 62 0 3 21 5 46 5 42
0 45 -1 38 -22z"/>
<path d="M2023 310 c-42 -17 -58 -84 -27 -114 16 -17 59 -22 67 -8 3 4 -9 7
-26 7 -27 0 -32 4 -35 28 -3 24 0 27 30 28 30 2 31 2 6 6 -16 2 -28 7 -28 11
1 17 19 34 46 42 19 5 22 8 9 9 -11 0 -30 -4 -42 -9z"/>
<path d="M484 275 c-5 -29 -11 -35 -33 -36 -23 -2 -24 -2 -3 -6 26 -5 26 0 7
-75 -17 -65 -10 -88 26 -88 18 0 49 35 49 55 -1 5 -8 -2 -16 -17 -8 -16 -21
-28 -29 -28 -18 0 -19 29 -2 95 10 38 19 51 38 56 22 7 23 7 2 8 -19 1 -21 5
-16 36 4 22 2 35 -5 35 -6 0 -14 -16 -18 -35z"/>
<path d="M2374 275 c-5 -29 -11 -35 -33 -36 -23 -2 -24 -2 -3 -6 26 -5 26 0 7
-75 -17 -65 -10 -88 26 -88 18 0 49 35 49 55 -1 5 -8 -2 -16 -17 -8 -16 -21
-28 -29 -28 -18 0 -19 29 -2 95 10 38 19 51 38 56 22 7 23 7 2 8 -19 1 -21 5
-16 36 4 22 2 35 -5 35 -6 0 -14 -16 -18 -35z"/>
<path d="M236 218 c-9 -12 -16 -27 -16 -33 1 -5 8 2 16 18 16 30 51 39 39 10
-21 -56 -29 -105 -19 -121 13 -21 50 -28 69 -12 9 7 15 8 20 0 12 -19 42 -10
53 15 17 37 14 45 -4 13 -15 -28 -34 -38 -34 -18 0 6 7 40 16 76 9 36 14 68
10 71 -10 10 -17 -2 -33 -63 -20 -77 -30 -94 -54 -94 -29 0 -33 23 -14 80 9
28 14 57 11 65 -8 22 -43 18 -60 -7z"/>
<path d="M828 223 c-69 -43 -63 -153 9 -153 39 0 93 60 93 102 0 61 -48 84
-102 51z m71 -12 c12 -22 -3 -87 -27 -113 -35 -41 -77 -11 -66 46 13 70 70
111 93 67z"/>
<path d="M962 215 c-17 -37 -14 -45 4 -12 15 27 34 37 34 17 0 -6 -7 -40 -16
-76 -9 -36 -14 -68 -10 -71 10 -10 17 2 33 64 8 32 22 66 30 76 20 21 45 23
37 2 -4 -9 0 -15 10 -15 21 0 21 29 0 37 -8 3 -26 1 -39 -5 -15 -7 -26 -8 -30
-2 -12 19 -42 10 -53 -15z"/>
<path d="M1449 209 c-23 -24 -29 -40 -29 -74 0 -55 19 -73 62 -57 23 8 35 8
50 -1 16 -10 22 -9 34 7 8 11 14 27 13 35 0 9 -5 4 -11 -11 -5 -16 -14 -28
-20 -28 -10 0 -9 21 8 114 6 34 5 38 -9 33 -9 -3 -19 -2 -22 3 -12 19 -48 9
-76 -21z m77 6 c10 -26 -17 -115 -38 -126 -46 -25 -62 18 -33 88 22 52 59 71
71 38z"/>
<path d="M1612 215 c-17 -37 -14 -45 4 -12 15 27 34 37 34 17 0 -6 -7 -40 -16
-76 -9 -36 -14 -68 -10 -71 10 -10 17 2 33 64 8 32 22 66 30 76 20 21 45 23
37 2 -4 -9 0 -15 10 -15 21 0 21 29 0 37 -8 3 -26 1 -39 -5 -15 -7 -26 -8 -30
-2 -12 19 -42 10 -53 -15z"/>
<path d="M1794 215 c-9 -14 -14 -28 -11 -32 4 -3 11 6 16 21 11 28 31 35 31
11 0 -38 -44 -191 -58 -202 -13 -11 -8 -13 29 -12 24 1 36 3 26 6 -14 4 -17
11 -13 26 3 12 6 27 6 34 0 8 11 10 33 6 29 -4 37 0 65 31 23 26 32 47 32 71
0 53 -46 85 -78 53 -9 -9 -15 -9 -24 0 -19 19 -36 14 -54 -13z m127 -2 c4 -57
-19 -119 -47 -130 -30 -11 -44 18 -32 67 13 52 33 80 60 80 10 0 18 -8 19 -17z"/>
<path d="M2112 215 c-17 -37 -14 -45 4 -12 15 27 34 37 34 17 0 -6 -7 -40 -16
-76 -9 -36 -14 -68 -10 -71 10 -10 16 1 34 68 13 49 23 67 44 79 22 11 30 12
40 2 9 -9 8 -23 -5 -66 -19 -59 -15 -86 14 -86 18 0 49 35 49 55 -1 5 -8 -2
-16 -17 -8 -16 -21 -28 -29 -28 -18 0 -18 -2 0 50 23 65 20 98 -10 106 -16 4
-34 0 -49 -10 -21 -13 -25 -13 -30 -1 -9 24 -42 17 -54 -10z"/>
<path d="M2462 215 c-17 -37 -14 -45 4 -12 15 27 34 37 34 17 0 -6 -7 -40 -16
-76 -9 -36 -14 -68 -10 -71 10 -10 17 2 33 64 8 32 22 66 30 76 20 21 45 23
37 2 -4 -9 0 -15 10 -15 21 0 21 29 0 37 -8 3 -26 1 -39 -5 -15 -7 -26 -8 -30
-2 -12 19 -42 10 -53 -15z"/>
<path d="M2646 218 c-9 -12 -16 -27 -16 -33 1 -5 8 2 16 18 16 30 51 39 39 10
-37 -96 -30 -138 22 -138 23 0 29 -4 25 -15 -9 -25 -34 -50 -52 -50 -24 0 -32
11 -18 27 12 15 5 28 -11 18 -21 -12 -12 -44 14 -51 31 -8 69 16 88 54 19 36
51 171 43 179 -10 10 -17 -2 -33 -63 -20 -77 -30 -94 -54 -94 -29 0 -33 23
-14 80 9 28 14 57 11 65 -8 22 -43 18 -60 -7z"/>
</g>
</svg>
